<?xml version="1.0" encoding="UTF-8"?>
<svg width="1085" height="557" version="1.1" viewBox="0 0 1085 557" xmlns="http://www.w3.org/2000/svg" xmlns:cc="http://creativecommons.org/ns#" xmlns:dc="http://purl.org/dc/elements/1.1/" xmlns:rdf="http://www.w3.org/1999/02/22-rdf-syntax-ns#">
 <metadata>
  <rdf:RDF>
   <cc:Work rdf:about="">
    <dc:format>image/svg+xml</dc:format>
    <dc:type rdf:resource="http://purl.org/dc/dcmitype/StillImage"/>
    <dc:title/>
   </cc:Work>
  </rdf:RDF>
 </metadata>
 <path d="m376.14 506.9c-0.3145-0.81957 0.39382-10.19 1.574-20.824 3.6541-32.923 5.2364-56.834 3.7609-56.834-0.41657 0-0.75741 0.675-0.75741 1.5 0 1.1388-1.2641 1.5077-5.25 1.5318-5.3674 0.0325-8.4041 1.4204-8.7772 4.0117-0.49338 3.4262 0.11715 4.9565 1.9775 4.9565 1.0727 0 2.409-0.7875 2.9696-1.75 0.80881-1.3886 1.0256-0.87103 1.0497 2.5066 0.024 3.3592-0.51608 4.7296-2.5616 6.5-3.9577 3.4254-4.6031 5.3336-3.848 11.378 0.56042 4.4854 1.1361 5.7259 3.065 6.6048 1.3062 0.59516 2.375 1.3987 2.375 1.7857 0 1.1954-8.5766 4.0554-18.206 6.0711-5.053 1.0577-9.5109 2.4813-9.9064 3.1636-1.6405 2.83-5.4321 7.6875-6.0206 7.713-0.34835 0.0151-0.86872-0.87247-1.1564-1.9725-0.30143-1.1527-1.364-2-2.508-2-2.3122 0-4.5589 4.8822-5.6302 12.235-0.86325 5.9243-4.0945 8.8921-6.2817 5.7695-1.1498-1.6415-1.1072-2.688 0.28184-6.9349 1.6114-4.9264 1.6006-5.0465-0.7181-7.9845-1.2947-1.6406-3.0691-3.2381-3.943-3.5501-2.2936-0.81873-8.3964 1.9956-10.713 4.9402-2.5247 3.2096-2.8112 3.1748-4.7512-0.57686-1.5278-2.9544-1.4998-3.2131 0.5864-5.4338l2.1905-2.3317-3.3621-4.0482c-3.6782-4.4289-6.3756-5.1925-7.3621-2.0843-0.91125 2.8711-3.0653 2.4637-4.433-0.83835-0.64663-1.5611-3.3876-5.1574-6.091-7.9918-3.7298-3.9105-5.2949-6.5422-6.4893-10.912-0.86571-3.167-2.0196-6.564-2.5642-7.5489-0.54461-0.98487-0.67523-2.3003-0.29027-2.9232 0.44445-0.71914 1.9005 0.29753 3.9892 2.7854 2.5847 3.0786 3.5501 3.6571 4.5068 2.7003 1.5703-1.5703-0.21904-5.8324-2.8172-6.7102-3.3841-1.1434-5.2735-5.0588-5.1734-10.721 0.24398-13.808-0.0276-17.27-1.6342-20.833-1.5864-3.5181-1.594-4.1833-0.10595-9.3021 0.88148-3.0322 1.6096-7.0188 1.618-8.8591 0.0115-2.5185 0.25321-2.9751 0.97717-1.8461 0.52903 0.825 0.7273 2.2545 0.4406 3.1766-0.28669 0.92212 0.1858 3.3688 1.05 5.4371 1.3454 3.22 1.7649 3.554 2.9187 2.3234 0.7411-0.79042 2.8007-5.9371 4.5768-11.437 3.2398-10.032 5.2026-13.5 7.6412-13.5 1.6125 0 3.6995-3.6743 2.8593-5.0338-0.33736-0.54586 0.14475-3.5741 1.0714-6.7293 1.5154-5.1603 1.7748-5.4984 2.5803-3.3642 0.54462 1.4429 0.50632 3.7822-0.0977 5.9699-1.0209 3.6974-0.12258 5.9489 1.8798 4.7113 0.59792-0.36954 1.0871-1.6154 1.0871-2.7685s1.0499-3.4891 2.3331-5.191c2.3741-3.1487 4.9598-11.311 4.0497-12.784-0.92811-1.5017-6.0591-0.82554-7.7278 1.0184-0.91025 1.0058-1.655 2.8609-1.655 4.1224 0 1.8742-0.26121 2.0769-1.4282 1.1084-1.1142-0.92471-2.1027-0.83644-4.4967 0.40152-1.6877 0.87274-6.7825 2.094-11.322 2.714-4.5393 0.61997-8.7574 1.5158-9.3736 1.9908-0.61617 0.47499-1.3822 2.5445-1.7024 4.5988s-1.3032 6.8852-2.1847 10.735c-0.88146 3.85-2.6181 12.175-3.8592 18.5s-3.495 14.2-5.0088 17.5c-4.0217 8.7676-5.787 16.966-9.0433 42-0.8585 6.6-2.0494 13.575-2.6464 15.5s-1.0485 8.9846-1.0034 15.688c0.0808 11.994-0.9601 17.312-3.3885 17.312-0.73156 0-1.1193-2.2245-1.0895-6.25 0.0255-3.4375-0.60367-9.0503-1.3981-12.473-1.3656-5.883-1.3241-6.5658 0.76013-12.5 2.638-7.511 2.7585-11.505 0.49057-16.261-1.4719-3.0866-1.5314-4.2373-0.45443-8.7839 2.6002-10.977 2.6454-10.439-1.2379-14.738-1.9876-2.2001-3.6139-4.2669-3.6139-4.5929s0.83754-1.7872 1.8612-3.2471c2.4144-3.4434 3.6548-7.4399 6.0999-19.654 1.101-5.5 2.9043-14.275 4.0072-19.5 2.1492-10.181 2.5955-17.533 1.1196-18.446-2.0982-1.2967-18.858-1.7527-24.088-0.65533-8.2948 1.7404-8.1255 1.4533-6.4648 10.966 1.7445 9.9929 1.9993 10.469 5.18 9.6702l2.497-0.6267-0.70983 7.0682c-0.50274 5.006-0.35476 7.496 0.50722 8.5347 1.8836 2.2696 2.9904 0.79324 2.9904-3.9887 0-2.3976 0.27314-5.071 0.60699-5.941 0.98188-2.5587 2.4371-1.8126 2.2785 1.1682-0.0805 1.5125 0.44628 4.8522 1.1705 7.4216 1.0775 3.8224 1.084 5.5492 0.036 9.5-2.099 7.9125-2.3978 13.385-1.0399 19.046 0.97798 4.0767 1.0054 5.6252 0.11539 6.5152-0.64213 0.64213-1.1675 2.2166-1.1675 3.4989 0 1.3395-0.74456 2.5706-1.75 2.8937-5.7684 1.8536-7.7092 3.0987-10.9 6.9927-1.9535 2.384-3.9765 6.2248-4.4956 8.5351s-2.0443 5.2206-3.3894 6.4671c-1.392 1.29-2.2009 2.9041-1.8777 3.7465 0.34035 0.88692-0.28386 1.9358-1.5577 2.6176-1.4912 0.79807-1.941 1.7194-1.5069 3.087 0.74577 2.3497-5.6298 13.125-7.1607 12.102-0.55427-0.37028-1.3454-1.5732-1.7581-2.6732-0.71718-1.9116-0.85421-1.88-3.0989 0.71486-1.3112 1.5157-2.8742 5.2702-3.5387 8.5-1.4979 7.2812-2.5543 9.2851-4.8944 9.2851-2.802 0-3.3097-2.7677-1.5047-8.202l1.6241-4.8898-3.3456-3.4435c-1.8401-1.8939-3.8942-3.4483-4.5648-3.4541-2.2003-0.0192-9.3112 4.1776-10.342 6.1039-1.5523 2.9005-2.319 2.3354-4.9554-3.6526-1.5854-3.6008-3.1458-5.6859-4.4608-5.9606-1.1124-0.23242-4.7225-0.94387-8.0225-1.581s-7.9722-1.9312-10.383-2.8758l-4.3827-1.7174 2.536-2.4135c1.788-1.7016 2.7359-3.9348 3.2138-7.5709 0.64691-4.9222 0.51456-5.338-2.9033-9.1212-2.5611-2.8348-3.5812-4.8899-3.5812-7.2151 0-2.7766 0.21898-3.0695 1.5-2.0064 1.1967 0.99319 1.8033 0.99319 3 0 1.9947-1.6555 1.8914-3.632-0.35782-6.8456-2.4883-3.5552-3.1555-7.7089-2.1223-13.213 0.96153-5.1222-0.12182-11.472-2.3349-13.685-1.2828-1.2828-1.5843-1.0509-2.4587 1.8907-0.54814 1.844-1.5419 6.0528-2.2084 9.3528-0.66648 3.3-2.4722 10.05-4.0126 15-5.1164 16.441-6.0615 21.398-9.8556 51.699-0.39245 3.1342-0.97804 5.9631-1.3013 6.2863-0.95345 0.95345-2.1197-24.104-2.373-50.985-0.12955-13.75-0.28953-26.88-0.35551-29.179-0.12022-4.1874-2.3581-7.7421-4.4376-7.0489-2.1553 0.71843-8.7406 15.257-10.747 23.727-0.45605 1.925-1.2065 5.075-1.6677 7-0.65674 2.7414-1.3953 3.5655-3.4074 3.8024-2.936 0.34559-10.88 8.9463-13.221 14.315l-1.4755 3.3829-0.08157-5.7909c-0.04747-3.3698 0.79718-8.5109 2.0203-12.297 1.7504-5.4181 1.9042-6.9833 0.9196-9.3603-1.7911-4.3242-5.4594-7.365-7.9364-6.5788-1.7389 0.5519-2.0851 0.24116-2.0851-1.8717 0-3.2892-3.0811-9.737-4.4441-9.3002-0.58075 0.18612-1.7564 3.007-2.6125 6.2686-0.85614 3.2616-2.4016 7.7302-3.4343 9.9302-1.4568 3.1034-1.9128 6.5778-2.0342 15.5-0.17728 13.03-0.79495 16.891-4.1239 25.773-1.9865 5.3004-2.351 8.124-2.351 18.215 0 10.605-0.20756 12.053-1.854 12.934-1.4763 0.7901-2.0849 0.54264-2.9873-1.2148-2.2611-4.4033-4.1586-14.293-4.1575-21.667 0.0015-9.2799 2.5072-31.775 4.7386-42.54 0.91201-4.4 1.5704-10.475 1.4631-13.5s0.47813-10.353 1.301-16.284c1.9661-14.172 1.8902-17.52-0.50384-22.216-1.4361-2.8169-2.0019-5.9073-2.0066-10.961-5e-3 -5.3418-0.48555-7.7618-1.9934-10.039-2.9192-4.4078-2.6488-6.7077 0.74261-6.3164 1.9079 0.22012 3.1657 1.2294 4.1328 3.3164 3.07 6.625 7.5805 8.5426 10.452 4.4435 1.4152-2.0205 1.5053-1.9899 5.1492 1.75 4.3816 4.4971 7.1899 10.186 8.0711 16.349 0.73671 5.153 5.39 19.734 8.4209 26.388 1.1434 2.5098 2.5071 5.6898 3.0305 7.0665s1.6162 2.5032 2.4284 2.5032c1.7846 0 6.9507-7.2999 9.7544-13.783 5.4135-12.518 9.1505-19.939 11.187-22.217 3.9049-4.3656 7.3933-10.231 11.757-19.767 2.8744-6.2823 4.5677-8.9395 5.2573-8.25 1.752 1.752 2.51 1.1621 5.1172-3.9828 2.1405-4.2241 2.9726-5 5.3619-5 3.6792 0 6.3803-3.0175 5.9631-6.6616-0.44523-3.889-2.0801-3.5252-10.171 2.2635-3.7656 2.6939-7.5888 5.3481-8.496 5.8981-7.0529 4.2755-10.729 7.6483-20.419 18.735-8.3546 9.5588-18.722 13.884-19.54 8.1525-0.47278-3.3122 3.9586-7.6548 16.092-15.77 6.1653-4.1234 13.124-9.1362 15.464-11.139 3.715-3.1805 13.246-14.532 13.246-15.776 0-0.24713 2.0927-3.9938 4.6504-8.326 4.5662-7.734 15.495-19.492 31.35-33.728 12.87-11.556 28-26.84 28-28.284 0-5.1628-10.901-24.345-14.654-25.785-2.3294-0.89387-5.1932 2.0882-5.9671 6.2136l-0.66005 3.5184-1.3686-2.6121c-1.6013-3.0561-6.4858-4.3587-10.55-2.8135-3.1759 1.2075-4.3234 3.1368-5.2722 8.8642-0.38721 2.3375-1.1145 4.25-1.6161 4.25-0.50165 0-0.9121-0.38429-0.9121-0.85398 0-1.7294-4.9668-6.146-6.9116-6.146-3.9738 0-13.971 24.146-15.021 36.28-0.0371 0.42897-2.4223 0.65397-5.3005 0.5l-5.233-0.27993-2.8894 10.5c-4.9152 17.861-6.7816 21.18-10.577 18.81-2.9763-1.8588-3.3347-3.9295-1.4535-8.3988 1.3502-3.2078 1.5359-5.9964 1.033-15.508-0.45854-8.6709-0.24317-12.96 0.85369-17 7.5396-27.773 8.3707-41.532 3.125-51.734-1.5075-2.9319-2.5992-6.0664-2.4261-6.9656 0.17316-0.89916 3.6867-3.6994 7.8078-6.2227 6.1794-3.7836 7.9312-5.455 9.9929-9.5344 2.4079-4.7642 2.4966-5.6205 2.4072-23.233l-0.0928-18.286 2.7831 2.6664c4.4846 4.2966 5.3099 2.9924 6.7458-10.66 0.71164-6.7665 1.9315-14.132 2.7107-16.368s1.428-4.9652 1.4416-6.0652c0.0162-1.315 1.3057-2.6075 3.7646-3.7736 2.0569-0.97551 5.0898-2.52 6.7398-3.4321 4.3564-2.4083 12.891-2.9231 15.89-0.95835 1.902 1.2463 2.6819 3.0819 3.6785 8.6584 1.1618 6.5008 1.0477 8.3218-1.4018 22.37-1.4666 8.4111-2.6665 17.084-2.6665 19.273s-0.66069 4.8538-1.4682 5.9215c-0.8075 1.0676-1.4825 2.7616-1.5 3.7644-0.0476 2.7292 3.2649 1.6558 3.9586-1.2827 0.5528-2.3417 4.828-5.5486 12.878-9.6606 2.9655-1.5147 11.886-12.24 14.881-17.892 0.58644-1.1067 4.2566-3.8067 8.1559-6 5.1028-2.8702 7.088-4.5483 7.0838-5.9878-6e-3 -2.0794-0.78682-2.5946-16.989-11.212-13.238-7.0412-14.939-8.1577-24-15.757-12.179-10.214-12.963-10.609-31-15.599-10.949-3.0295-26.615-5.2198-33.213-4.6434-3.0848 0.26948-8.6125 2.3345-16 5.9773-13.743 6.777-15.601 7.3821-16.386 5.3371-1.279-3.3329 11.329-11.105 23.099-14.238 6.2526-1.6648 11.108-1.8638 45.476-1.8638h38.476l3.5239 2.4178c1.9382 1.3298 10.049 5.774 18.024 9.8761 7.975 4.102 17.504 9.2015 21.174 11.332 3.671 2.1306 7.346 3.8739 8.1667 3.8739s1.6422 0.3375 1.8255 0.75c0.18333 0.4125 2.9208 2.4421 6.0833 4.5102s5.75 4.2215 5.75 4.7852c0 1.3618-2.7047 5.6059-6.4542 10.128-12.265 14.791-15.945 21.949-16.222 31.557l-0.20895 7.2373-8.8073 7.3351c-9.9011 8.2461-19.307 18.582-19.307 21.216 0 1.7686 3.5377 5.4815 5.2228 5.4815 1.346 0 8.6764 5.2606 13.277 9.5282 2.2 2.0407 5.0655 4.5506 6.3678 5.5776s4.4995 3.7858 7.1049 6.1307 7.337 6.5099 10.515 9.2556l5.7777 4.9922-0.60759 8.5597c-0.56122 7.9066-3.1874 16.577-7.4144 24.478-8.0104 14.974-13.147 28.186-13.374 34.403-0.0718 1.9662-0.67512-0.70015-1.3406-5.9252-0.66547-5.225-1.5633-10.31-1.9952-11.299-1.1828-2.7099-3.8251-1.6103-5.7003 2.3722-2.5544 5.4249-4.295 6.5096-7.2931 4.5452-1.3584-0.89006-2.8951-1.6183-3.4149-1.6183-0.84424 0-12.988 8.1113-28.005 18.705-2.9586 2.0872-6.4058 4.47-7.6604 5.295-17.972 11.818-20.047 13.555-19.543 16.358 0.0849 0.47172 0.6222 4.3344 1.1941 8.5837 0.97812 7.268 0.88708 8.1018-1.5359 14.065-3.0996 7.6281-3.2022 9.5882-0.57565 10.994 2.5719 1.3764 2.5719 3 0 3-1.1 0-2-0.4875-2-1.0833 0-0.59584-0.53042-0.90653-1.1787-0.69043-1.1063 0.36876-3.8504 10.068-5.3356 18.858-0.49498 2.9298-0.32469 3.919 0.67637 3.9292 0.73585 8e-3 2.3504 0.285 3.5879 0.61664 2.089 0.55983 2.25 0.28143 2.25-3.8915 0-6.8866 2.2804-11.346 6.5167-12.744 2.5454-0.84004 3.9295-0.86906 4.8541-0.10176 1.591 1.3204 3.0264 0.24613 7.5399-5.6427 1.7916-2.3375 3.8579-4.25 4.5918-4.25 1.7166 0 5.3086-5.8054 6.1285-9.905 0.43437-2.1718 1.1462-3.0925 2.2521-2.9126 1.9221 0.31264 6.1169-3.0729 6.1169-4.9368 0-0.72049-1.0125-1.6972-2.25-2.1705-1.6999-0.65015-2.7991-0.3561-4.4961 1.2028-2.5432 2.3363-3.0967 2.1234-3.4824-1.3396-0.25586-2.2973 0.0464-2.4521 5.2284-2.6778 3.025-0.13179 7.975 0.28794 11 0.93273s6.0286 1.0782 6.6746 0.9631c0.64603-0.11509 1.4601 0.25268 1.809 0.81727s1.9579 1.0265 3.5754 1.0265 2.941 0.41538 2.941 0.92308c0 0.50769 1.4098 2.3329 3.1329 4.056 2.1314 2.1314 3.6498 2.9034 4.75 2.4151 0.8894-0.39481 3.3046-0.91727 5.3671-1.161 3.9403-0.46569 4.8553-1.595 2.1374-2.638-1.2126-0.46533-1.3399-0.94748-0.51297-1.9438 1.0317-1.2431 7.241-2.3853 25.156-4.6276 4.142-0.51842 9.19-1.6358 11.218-2.4831 2.0279-0.8473 4.7405-1.5406 6.028-1.5406 1.2876 0 3.1852-0.61728 4.2169-1.3717 1.9292-1.4106 2.2157-2.9973 4.4471-24.628 0.53901-5.225 1.9127-17.825 3.0527-28 2.7295-24.362 3.7943-53.346 2.0376-55.463-0.9817-1.1829-3.4346-1.5374-10.636-1.5374h-9.36l-4.5254-4.336c-4.1273-3.9546-4.4656-4.635-3.8458-7.734 0.85579-4.279 4.0043-9.6821 6.3843-10.956 2.5136-1.3452 13.138-1.2206 20.195 0.23697 6.05 1.2496 8.3508 0.71655 9.8319-2.278 1.7122-3.4616 4.0584-13.541 6.347-27.267 1.8252-10.946 3.1373-15.946 5.035-19.184 1.4116-2.4087 2.9992-4.6468 3.5279-4.9736 0.52875-0.32679 1.7292-2.2122 2.6676-4.1897 1.7016-3.5858 1.697-3.6128-1.7232-9.9979-5.1889-9.687-6.3067-10.452-15.318-10.488-4.188-0.0164-7.8258-0.37166-8.084-0.78941-0.60761-0.98313 8.8581-4.0446 12.506-4.0446 4.2717 0 5.7312 0.87243 8.1127 4.8492 3.935 6.5709 13.104 18.151 14.372 18.151 0.68203 0 1.7073-1.2375 2.2783-2.75 2.1685-5.7438 4.2044-12.671 4.2044-14.306 0-4.8636 6.8048-4.7973 12.066 0.1175 2.9009 2.7099 3.0858 3.2847 2.6296 8.1765-0.51539 5.5272-1.1726 8.5054-4.5812 20.762-2.8423 10.22-4.0452 35.555-1.8263 38.464 1.4735 1.9319 1.6516 1.935 10.774 0.18623 8.7444-1.6763 9.6239-2.0812 15.357-7.0706 5.955-5.1827 16.018-12.58 17.113-12.58 0.30413 0 2.9563-1.7754 5.8937-3.9454 3.7186-2.7471 6.4392-5.9097 8.9573-10.412 1.9891-3.5569 3.6166-7.1196 3.6166-7.9171s-1.2375-3.0458-2.75-4.9963-5.8894-7.8623-9.7264-13.138c-3.837-5.2752-7.272-9.5912-7.6334-9.5912-0.36134 0-0.9289-0.7875-1.2612-1.75-0.59684-1.7285-7.5598-12.113-11.771-17.555-3.2678-4.2229-7.4992-5.983-14.157-5.8886-7.1721 0.1017-9.0858 1.4356-8.3717 5.8356 0.33105 2.04 0.0339 3.6419-0.8046 4.3378-1.5893 1.319-4.4008-2.1917-7.4478-9.3002-1.0728-2.5027-3.0291-5.2571-4.3473-6.1209-3.164-2.0732-4.9862-1.4169-25.73 9.267-29.04 14.957-33.522 17.129-36.632 17.751-2.7124 0.54248-3.1908 0.26594-4.3401-2.5089-1.1115-2.6834-1.064-3.3702 0.34015-4.9218 0.89754-0.99177 1.6319-2.242 1.6319-2.7783 0-1.6479 6.2618-7.0325 10.853-9.3323 2.3939-1.1992 10.044-3.6794 17-5.5114 6.9561-1.832 15.122-4.0766 18.147-4.9879 20.51-6.1791 22.861-6.4771 51.316-6.5074 18.419-0.01957 27.492 0.33328 28.974 1.1268 4.6056 2.4648 19.487 17.088 25.792 25.345 7.826 10.248 18.403 27.422 23.256 37.761l1.7653 3.7608-3.4953 8.839c-1.9224 4.8615-3.7957 10.036-4.1628 11.499-0.36713 1.4628-1.0677 2.9069-1.5567 3.2092-0.48907 0.30226-0.88922 1.2162-0.88922 2.031 0 3.0039-4.6291 7.5989-10.482 10.405-3.3098 1.5867-7.0673 3.6973-8.3501 4.6902-4.7521 3.6783-10.802 8.9973-18.134 15.942-13.96 13.224-21.477 19.328-23.824 19.346-1.2594 0.01-4.0474-0.87927-6.1956-1.9752-3.9502-2.0152-5.895-1.3864-4.3187 1.3963 0.44226 0.78078 3.2791 3.3683 6.3041 5.75s6.3925 5.1402 7.4834 6.13c1.0908 0.98982 3.9302 2.9406 6.3096 4.335 3.7196 2.1798 4.7594 2.3843 7.4159 1.4583 5.7793-2.0147 5.7912-1.9952 5.7912 9.4152 0 11.906-1.0771 10.069 12 20.468 3.575 2.8429 9.875 8.4453 14 12.45s9.4202 8.5403 11.767 10.08c4.4625 2.9271 5.8708 5.8326 4.8323 9.9702l-0.61735 2.4597-7.9882-3.863c-17.079-8.2592-28.556-16.338-49.287-34.696-10.143-8.9816-24.954-17.361-30.687-17.361-1.5776 0-2.0199 0.65683-2.0199 3 0 1.65 0.525 3 1.1667 3 0.64166 0 0.88685 0.27981 0.54486 0.6218s-3.4545-1.6135-6.9167-4.3456c-8.3443-6.5846-14.666-10.16-20.852-11.791-4.566-1.2045-5.2571-1.1677-6.764 0.36009-0.92311 0.93591-4.3559 9.0762-7.6285 18.09l-5.9501 16.388 2.2001 1.4608c1.2405 0.82365 2.2001 2.498 2.2001 3.8388 0 2.4717-1.4637 3.003-3.9461 1.4325-1.9755-1.2498-4.6817 0.35047-5.3528 3.1652-0.299 1.2542-1.4791 5.8248-2.6224 10.157s-2.0787 9.7104-2.0787 11.952c0 4.076 3.5011 20.86 4.9336 23.652 0.41783 0.81425 2.8824 2.1397 5.4768 2.9454 4.0501 1.2578 6.228 1.2793 15.403 0.15239 5.8774-0.72187 14.061-1.6764 18.186-2.1212 4.125-0.44479 12.675-1.5134 19-2.3748 6.325-0.86134 13.225-1.5697 15.333-1.5741 5.54-0.0117 4.1831 2.305-1.9156 3.2704-15.168 2.4013-19.719 3.9507-19.204 6.539 0.24636 1.2384 1.384 1.6825 4.3103 1.6825 3.3615 0 4.025 0.34755 4.2952 2.25 0.23256 1.6375 0.98972 2.25 2.7814 2.25 1.4716 0 2.6797 0.7039 3.0034 1.75 0.29789 0.9625 1.0416 2.65 1.6526 3.75s1.7777 3.35 2.5927 5c0.81492 1.65 2.5321 4.272 3.816 5.8267s2.3344 3.644 2.3344 4.643c0 0.99895 0.74008 2.1003 1.6446 2.4474 1.7939 0.6884 5.3554-1.9539 5.3554-3.9732 0-0.68538 2.0717-3.2886 4.6038-5.785 4.0331-3.9762 5.9856-4.9685 15.75-8.0052 20.213-6.2862 26.77-7.4212 41.146-7.1224 7.15 0.14864 13.514 0.3149 14.143 0.36947 1.8041 0.15661 11.079 9.0181 16.327 15.599 7.4679 9.365 14.274 21.491 13.734 24.47-0.5302 2.9264-4.8434 14.918-6.0468 16.812-0.44808 0.70503-2.8524 2.2397-5.3429 3.4104s-9.2872 6.5642-15.104 11.985c-8.4781 7.902-11.333 9.978-14.393 10.467-2.0996 0.33575-3.8175 1.032-3.8175 1.5472 0 1.0904 5.0628 5.519 9.2424 8.0847 1.5922 0.97739 4.1015 1.6524 5.5763 1.5 2.6213-0.27088 2.6879-0.139 2.9769 5.8898 0.28817 6.0126 0.41325 6.2624 5 9.9875 2.5874 2.1013 6.0544 5.1955 7.7044 6.8759s5.1375 4.7777 7.75 6.883c4.8792 3.9318 6.0894 6.5882 3 6.5849-2.9358-3e-3 -17.686-9.4623-28.798-18.468-12.333-9.9948-17.576-12.955-21.539-12.163-2.0694 0.41387-4.2826-0.33852-8.5438-2.9045-3.163-1.9047-7.0405-3.463-8.6167-3.463-2.5888 0-3.1832 0.70073-6.1504 7.25-3.6977 8.1616-5.0036 13.383-3.5688 14.27 1.7126 1.0584 1.0373 2.2597-1.8329 3.2602-2.3145 0.80683-3.0083 1.8777-4 6.1741-1.4945 6.4744-1.5098 9.9288-0.0694 15.649 1.0099 4.0107 0.91756 4.7245-0.86573 6.6928-1.0979 1.2118-2.2756 3.692-2.6171 5.5114-0.77994 4.1555-3.3568 7.1136-4.2252 4.8504zm-191.42-36.566c2.1262-1.5533 2.5024-2.6314 2.5163-7.2094 0.0169-5.5837 0.80849-7.8829 2.714-7.8829 0.61173 0 1.9041-0.71663 2.8719-1.5925 0.96783-0.87588 3.2533-2.3384 5.0787-3.25 1.8564-0.92709 3.448-2.5582 3.6116-3.7014 0.28933-2.0215 8.8322-8.4416 12.613-9.4789 1.048-0.28751 2.2641-1.1875 2.7025-2 2.412-4.4699 3.9966-8.9993 3.4549-9.8757-0.33957-0.54944-0.0861-3.109 0.56326-5.6878 1.023-4.0626 0.94188-5.1322-0.60718-8.0086-1.3746-2.5524-1.6342-4.478-1.1232-8.3304 0.55994-4.221 0.30536-5.5623-1.6155-8.5112-2.8163-4.3236-9.4301-8.0336-17.867-10.022-7.5173-1.7719-24.086-2.031-27.229-0.42569-2.8764 1.4691-11.684 10.02-11.687 11.347-1e-3 0.57067-1.6753 1.9376-3.7195 3.0376-2.0443 1.1-4.2286 3.125-4.8541 4.5-0.62549 1.375-2.8554 6.0546-4.9554 10.399l-3.8181 7.8992 2.2857 1.8508c1.2571 1.018 2.9108 1.8508 3.6749 1.8508 1.594 0 1.8608 1.5905 0.41639 2.4832-1.8032 1.1144-3.1965 8.3319-2.0294 10.513 1.1994 2.2411 3.9799 2.6265 5.8022 0.80418 0.93333-0.93333 1.2-0.74555 1.2 0.84501 0 1.1248-0.9 2.8595-2 3.855s-2 2.3201-2 2.9436c0 0.62346-0.90955 2.9162-2.0212 5.095-1.9384 3.799-1.9506 4.0926-0.29961 7.1613 1.6371 3.0427 1.6333 3.2974-0.0767 5.187-2.1107 2.3323-1.381 4.1023 1.7066 4.1397 1.205 0.0146 5.116 1.1235 8.691 2.4643 5.6098 2.104 7.664 2.3687 15 1.9328 6.0365-0.35862 9.2246-1.0343 11-2.3314zm-14.434-10.99c-1.3497-0.52853-1.5712-0.98118-0.73369-1.4988 2.2879-1.414 0.16865-2.371-4.5464-2.0531-2.6061 0.17569-5.2011-0.0646-5.7666-0.53395-0.87079-0.72269-1.0508-4.6395-0.60817-13.235 0.0588-1.1412 0.61957-1.5148 1.6691-1.1121 0.93016 0.35694 1.3852 1.3536 1.1058 2.4221-0.26114 0.99859 0.0816 2.5765 0.7616 3.5065 1.1515 1.5748 1.333 1.5608 2.6442-0.20352 0.77431-1.0419 2.8447-2.4081 4.6009-3.036 2.7517-0.98383 3.4297-0.88015 4.905 0.75 1.93 2.1327 9.2482 2.6454 11.115 0.77878 0.61207-0.61207 1.5824-0.82266 2.1563-0.46797 1.7801 1.1002 0.0969 3.4487-2.7038 3.7726-2.2032 0.25481-2.8388 1.0194-3.6654 4.41-0.55 2.2559-1.6176 4.8434-2.3724 5.75-1.4296 1.717-5.2402 2.051-8.5612 0.75051zm-5.5664-1.1022c0-0.55 0.42344-1 0.94098-1s1.2191 0.45 1.559 1-0.0835 1-0.94098 1c-0.85746 0-1.559-0.45-1.559-1zm14.117-27.105c-3.5126-3.7704-4.5395-7.5406-3.2375-11.886 0.71872-2.3989 1.9506-4.1372 3.2165-4.539 2.9198-0.9267 7.2453 1.1449 9.1606 4.3873 1.488 2.519 1.4982 3.1764 0.11208 7.1997-0.839 2.4352-1.9952 4.9937-2.5694 5.6855-1.5663 1.8873-4.4787 1.5181-6.6823-0.84716zm-15.965-3.5775c-1.7764-2.3679-2.2738-2.5781-3.1172-1.3175-0.76653 1.1457-1.0072 1.1822-1.0189 0.15437-8e-3 -0.7401 0.77219-2.542 1.7347-4.0043s2.249-3.5567 2.859-4.6544c0.60994-1.0976 1.7349-1.9957 2.5-1.9957 1.0395 0 1.389 1.5688 1.383 6.2081-0.01 7.7212-1.4044 9.5232-4.3405 5.6094zm29.849-0.636c0-0.85988 0.46193-1.8489 1.0265-2.1978s0.96127-1.163 0.88152-1.809c-0.47173-3.8212 0.21152-5.6746 2.092-5.6746 2.354 0 2.4704 0.93892 0.6549 5.2821-1.6629 3.9781-4.6549 6.8059-4.6549 4.3993zm-38.25-11.371c-1.9554-0.51098-2.1688-1.5135-0.86763-4.0742 0.48531-0.95504 1.2728-3.0398 1.75-4.6328 1.3674-4.5648 3.7829-5.5016 6.8227-2.6458 1.3997 1.315 2.5449 2.935 2.5449 3.6002 0 1.0343-7.5532 8.6545-8.2529 8.326-0.13592-0.0638-1.0346-0.3218-1.9971-0.57333zm192.75 53.689c2.5662-1.1 5.6534-2 6.8604-2s3.2233-0.72052 4.4805-1.6012c2.1625-1.5147 2.1944-1.7023 0.59062-3.4745-1.4242-1.5738-1.5051-2.3326-0.50581-4.7451 1.4835-3.5815 0.69404-7.0663-3.2594-14.388-3.046-5.641-3.1373-8.2571-0.20326-5.822 0.83129 0.68991 2.1922 0.99316 3.0242 0.67389 1.9906-0.76389 1.9774-8.4448-0.0191-11.084-1.9442-2.5705-1.852-3.5589 0.33183-3.5589 2.3228 0 4.2-1.9013 4.2-4.254 0-1.0197-1.35-4.2804-3-7.246s-3-6.1342-3-7.0416c0-2.6245-3.7482-7.1784-6.4707-7.8617-1.3711-0.34412-3.1357-1.8566-3.9214-3.3612-2.3964-4.5889-10.199-11.068-14.241-11.827-2.029-0.38065-8.2422-0.43424-13.807-0.1191-10.941 0.61955-18.721 2.9027-24.552 7.2044-3.8069 2.8086-7.414 9.4592-5.9421 10.956 1.428 1.4519 1.112 7.8514-0.50156 10.155-1.8657 2.6637-0.98658 17.296 1.087 18.091 0.74189 0.28469 1.3489 1.7754 1.3489 3.3128 0 2.1088 0.6753 3.0726 2.75 3.9248 5.6439 2.3182 11.487 6.4082 13.215 9.2497 1.6032 2.6363 11.295 9.8164 13.251 9.8164 0.43105 0 0.79061 2.5875 0.79903 5.75 8e-3 3.1625 0.39091 6.3423 0.84997 7.0663 2.676 4.2201 18.8 5.5421 26.635 2.1837zm-18.927-12.57c-0.86346-0.86346-1.8374-2.776-2.1644-4.25-1.3115-5.9128-1.505-6.1801-4.476-6.1801-1.8317 0-2.9326-0.51987-2.9326-1.3848 0-1.0852 1.3524-1.2771 6.25-0.88685 5.4248 0.43224 6.4967 0.22428 8.1186-1.575 1.8644-2.0683 1.8772-2.0686 5.6822-0.12744 2.0974 1.07 4.1002 2.4093 4.4505 2.9761 1.1518 1.8637 2.4988-0.0559 2.4988-3.561 0-1.8925 0.40122-3.441 0.89159-3.441 1.0289 0 2.4002 4.7188 1.7004 5.8512-0.25807 0.41756-0.111 2.3475 0.32683 4.2888 1.0238 4.5394-0.95579 7.9042-3.4382 5.844-1.3508-1.121-1.6654-0.99322-2.154 0.87491-0.5367 2.0523-0.65237 2.078-1.8688 0.41446-1.226-1.6766-1.4273-1.6506-3.6917 0.4767-2.7863 2.6176-6.9479 2.9254-9.1932 0.68007zm-7.4072-26.73c-0.6397-0.77079-1.4529-3.5157-1.8071-6.0997-0.8188-5.9738 0.81672-9.1727 5.4761-10.71 3.1854-1.0513 3.6974-0.95061 5.3133 1.0449 0.98348 1.2146 2.083 3.7799 2.4433 5.7007 0.54952 2.9292 0.17557 4.0869-2.3187 7.1786-3.1837 3.9463-7.1767 5.2116-9.1069 2.8859zm-7.0868-2.283c0.048-1.165 0.28494-1.4019 0.60416-0.60417 0.28887 0.72187 0.25335 1.5844-0.0789 1.9167-0.33229 0.33229-0.56864-0.25834-0.52522-1.3125zm27.158-0.58004c-1.819-1.819-1.6322-12.471 0.23134-13.186 1.5747-0.60426 1.776-0.37041 5.1593 5.9926 2.2654 4.2606 2.1766 5.3568-0.43365 5.3568-0.8102 0-1.9787 0.69148-2.5967 1.5366-0.89241 1.2204-1.3781 1.2822-2.3602 0.3zm-30.718-4.9957c-1.7642-3.582-1.5666-6.8409 0.41494-6.8409 1.8367 0 2.9118 3.5242 2.1453 7.0317l-0.75799 3.4683zm38.869-8.8212c-1.1619-0.46943-3.259-2.3184-4.6602-4.1089-2.3672-3.0247-2.4396-3.4203-1.0225-5.5831 1.0134-1.5466 2.4933-2.3277 4.4102-2.3277 1.5867 0 2.885 0.11885 2.885 0.26412 0 0.14526 0.88549 2.6867 1.9678 5.6477 2.5405 6.9504 1.7677 8.2687-3.5802 6.1079zm36.537 4.1054c0.47388-0.8938 1.8399-6.5751 3.0356-12.625 1.5069-7.6247 3.0739-12.478 5.1067-15.816 1.613-2.649 2.9327-5.4615 2.9327-6.25 0-1.8882 1.6292-1.8424 2.3616 0.0664 0.31658 0.825 1.2101 1.5 1.9857 1.5 1.3459 0 2.2739-1.8378 4.2921-8.5 1.1427-3.7723 3.9416-3.9418 6.5867-0.39896 1.8457 2.4721 1.8663 2.9183 0.41641 9-3.8644 16.21-4.6113 24.22-2.6073 27.965 1.4733 2.7529 8.3643 2.5781 13.097-0.33219 13.083-8.0453 22.868-17.725 22.868-22.624 0-2.0198-13.82-21.66-19.294-27.42-3.251-3.4206-4.0589-3.778-7.9134-3.5-3.325 0.2398-4.5153 0.81684-5.2799 2.5596-0.54292 1.2375-1.2544 2.25-1.581 2.25-0.62383 0-2.3603-3.279-3.3098-6.25-0.33159-1.0375-1.5556-1.75-3.0064-1.75-2.7894 0-15.331 5.4507-27.116 11.785-4.4 2.365-8.994 4.55-10.209 4.8555-3.8607 0.97085-4.7404 2.916-3.377 7.4667 0.66638 2.2242 0.91853 5.3783 0.56032 7.0092-0.82375 3.7505 0.97106 6.2505 3.5114 4.891 1.4864-0.79551 1.8934-0.42552 2.4977 2.271 2.4268 10.827 2.4342 11.131 0.38009 15.439-3.1792 6.6682-2.3881 8.5461 4.1364 9.8198 6.3052 1.2308 8.7044 0.88932 9.9249-1.4127zm-14.675-35.858c-1.4989-0.51963-1.6909-4.2667-0.21862-4.2667 1.163 0 2.3373 2.4724 1.813 3.817-0.18938 0.48564-0.90683 0.68799-1.5943 0.44966zm10.848-7.9796c-0.83615-0.33103 0.30318-1.1315 2.8227-1.9832 3.2753-1.1072 4.5455-1.1619 5.6521-0.24353 0.78503 0.65152 1.4273 1.5795 1.4273 2.0621 0 0.94804-7.6039 1.0744-9.9021 0.16459zm17.348-5.3742c-0.36954-0.59793-0.17109-1.5879 0.44098-2.2 0.81716-0.81716 1.1129-0.52829 1.1129 1.0871 0 2.4145-0.51946 2.7866-1.5538 1.1129zm-283.47 31.448c0.0122-0.62656-0.84719-2.2016-1.9098-3.5l-1.9321-2.3608-1.5679 3.7179c-1.9859 4.709-1.9656 5.4555 0.18208 6.6829 1.3551 0.77448 2.1399 0.5036 3.4778-1.2003 0.95027-1.2103 1.7378-2.7132 1.75-3.3397zm221.02-46.788c0-1.7856-4.7191-5.5834-6.8849-5.5408-0.88833 0.0175-2.3984 0.62654-3.3558 1.3534-1.6543 1.256-1.6543 1.3992 0 2.8845 1.5111 1.3568 3.4679 1.9184 8.9907 2.5804 0.6875 0.0824 1.25-0.49251 1.25-1.2776zm-141-0.57258c0-2.051-3.8514-4.8516-5.9258-4.3092-2.5343 0.66275-2.6571 2.1462-0.32421 3.9171 2.0626 1.5658 6.25 1.8284 6.25 0.39205zm121.71-2.6268c0.49411-1.4842-2.7749-2.7077-3.9895-1.4931-0.5201 0.5201-0.6279 1.4598-0.23954 2.0882 0.8522 1.3789 3.7055 0.97743 4.229-0.59503zm-117.64-94.408c2.4333-1.3022 2.5006-5.1423 0.12788-7.2896-1.6327-1.4776-2.0173-1.487-4-0.0983-2.1134 1.4803-3.0493 6.2341-1.527 7.7564 0.96876 0.96877 3.1827 0.81765 5.3991-0.36851zm76.751-31.25c0.23694-2.0326-0.12008-2.7144-1.4213-2.7144-2.3067 0-5.3952 2.8787-5.3952 5.0287 0 1.4076 0.58824 1.5994 3.25 1.0594 2.5876-0.52489 3.3145-1.2126 3.5664-3.3737zm-84.89-33.125c0.83984-1.012 0.86093-1.6026 0.0746-2.0886-1.5995-0.98854-4.0007 0.19276-4.0007 1.9682 0 1.9208 2.3715 1.9936 3.9261 0.12041zm590.9 291.23c-0.0953-8.975-0.20784-19.65-0.25-23.721-0.0871-8.4102-1.4482-10.001-4.4021-5.1433-1.6411 2.6985-2.0494 2.9023-3.1524 1.5734-1.7225-2.0755-7.3478-1.9398-9.2559 0.22326-0.84903 0.9625-1.8573 3.2253-2.2407 5.0284l-0.69698 3.2784-3.4491-3.0284c-1.897-1.6656-4.0758-3.0284-4.8417-3.0284-1.992 0-5.2914-4.5422-6.0269-8.297-0.34506-1.7617-0.98892-4.103-1.4308-5.203s-1.9907-5.8518-3.4418-10.56c-5.2272-16.959-2.8641-37.192 5.4237-46.44 2.0547-2.2928 2.8242-4.409 3.2643-8.9767 0.46731-4.8499 1.0471-6.32 3.0752-7.7973 1.3863-1.0099 2.2626-2.4374 1.9678-3.2057-0.3243-0.84511 0.64203-1.992 2.4787-2.9417 1.6556-0.85614 3.2692-2.3726 3.5857-3.3698 0.89138-2.8085 14.692-14.509 18.528-15.708 1.3538-0.42317 3.7509-2.0589 5.3269-3.6349 1.8142-1.8142 3.9117-2.8655 5.7172-2.8655 3.3323 0 6.3606-2.6035 5.534-4.7577-0.31654-0.8249-1.0808-3.5794-1.6984-6.1211-1.5209-6.259-3.3356-8.1212-7.9142-8.1212-5.9105 0-6.7289 0.70397-7.9478 6.8369-2.3889 12.02-2.6163 12.311-3.4599 4.4297-1.0127-9.4608-2.1327-11.028-6.8483-9.5805-1.9575 0.60077-3.8092 0.84214-4.1149 0.53639-0.30575-0.30574-0.57022-2.3934-0.58771-4.6392-0.0351-4.5096-1.0484-6.2013-5.3737-8.972l-2.9055-1.8612 2.9578-1.2437c3.29-1.3833 4.08-3.3852 6.8771-17.427 2.0944-10.514 1.715-22.269-0.79988-24.784-0.95634-0.95634-2.748-1.7516-3.9814-1.7672-2.0753-0.0262-2.2945-0.62528-2.9382-8.0284-2.0856-23.988-2.6755-29.482-3.2691-30.443-0.35937-0.58148-3.4394-1.0556-6.8444-1.0535-9.7326 6e-3 -14.618 4.1342-16.86 14.246-0.45719 2.0625-1.2886 5.6625-1.8475 8-1.4956 6.2549-2.2956 15.797-2.3954 28.571l-0.0884 11.321-3-0.70069c-1.65-0.38538-4.125-0.75505-5.5-0.82149-2.5251-0.12201-2.9404 0.65005-7.1954 13.379-0.27577 0.825-1.0377 3.075-1.6932 5-6.8712 20.179-12.109 36.469-12.646 39.331-0.7673 4.0901 1.2564 5.8272 5.781 4.9623 5.4884-1.0492 9.6121 0.60857 15.032 6.0431 7.1604 7.1792 18.721 24.745 18.721 28.446 0 0.91744-1.1871 4.6937-2.6379 8.3917-2.4578 6.2644-3.0553 6.9685-8.75 10.309-3.3616 1.9721-9.2621 6.7317-13.112 10.577-4.758 4.752-8.2011 7.3157-10.75 8.0041-2.0625 0.55701-3.7431 1.3329-3.7347 1.7242 0.0599 2.7827 8.0126 8.2115 12.029 8.2115 2.88 0 2.9556 0.12781 2.9556 5 0 3.6075 0.52383 5.4874 1.8809 6.75 1.0345 0.9625 5.9845 5.3122 11 9.666 9.0047 7.8166 9.7208 8.649 8.4953 9.8745-1.4174 1.4174-18.634-9.1457-26.876-16.49-8.1816-7.29-12.522-9.7991-16.982-9.818-2.6402-0.0112-5.7323-1.034-9.0179-2.983-8.1139-4.813-9.1952-4.2341-13.695 7.3306-1.8836 4.8413-2.4398 7.4348-1.7438 8.1308 0.69603 0.69603-0.0174 1.8704-2.2366 3.6816l-3.2587 2.6596-0.0331 11.049c-0.0223 7.4663-0.43835 11.454-1.283 12.299-0.68746 0.68748-1.25 2.42-1.25 3.85 0 2.6073-1.5922 5-3.3272 5-0.53103 0-0.66095-2.2433-0.30405-5.25 0.34275-2.8875 1.0572-9.3 1.5877-14.25s1.4243-13.05 1.9863-18c0.56194-4.95 1.0297-13.664 1.0395-19.364l0.0178-10.364-4.5667 0.68483c-5.8157 0.87211-9.4333-1.1703-9.4333-5.3258 0-4.574 2.9686-6.4615 8.8832-5.648 9.0428 1.2437 9.3715 0.83185 12.532-15.701 0.82863-4.3341 2.419-8.9931 3.6281-10.628 1.184-1.6015 2.2211-4.0911 2.3046-5.5326 0.15822-2.7319 1.6518-3.7467 1.6518-1.1222 0 0.825 0.84541 1.5 1.8787 1.5 1.7261 0 2.64-1.4736 4.4962-7.25 0.77609-2.4152 4.3148-2.1983 5.6775 0.3479 0.87492 1.6348 0.67148 3.8974-0.92162 10.25-2.1567 8.5999-3.0896 20.298-1.7866 22.402 0.42563 0.6875 2.7054 1.25 5.0662 1.25 3.2265 0 5.2604-0.74097 8.191-2.9841 2.1443-1.6413 6.1487-4.5005 8.8987-6.3538 6.5475-4.4126 8.4745-6.6953 9.1067-10.788 0.51941-3.3623-2.3595-8.0321-15.181-24.624-2.8675-3.7109-5.3841-4.1482-7.194-1.25-2.3166 3.7095-8.1921 1.6803-11.153-3.8517-0.66786-1.2479-1.8045-2.1293-2.5259-1.9586-0.72139 0.17068-6.9578 2.9834-13.859 6.2504-8.3814 3.968-12.881 6.6738-13.554 8.15-0.55383 1.2155-1.7632 2.1425-2.6874 2.06-1.2349-0.11027-2.0527 1.2813-3.0845 5.2487-1.2285 4.7236-1.2163 5.6854 0.0981 7.6913 1.398 2.1336 1.1292 3.2504-3.8753 16.101-6.4512 16.566-8.3625 22.784-9.5468 31.06-0.95538 6.6764-4.8107 15.295-9.2516 20.683-2.0276 2.4599-3.3206 3.1873-5.0708 2.8528-1.8468-0.35303-3.1599 0.54035-6.1405 4.1778-2.5633 3.1282-3.6213 5.2773-3.2662 6.635 0.5409 2.0684-1.6256 3.4335-8.8159 5.5547-2.9951 0.88361-3.0008 0.89975-3.5 9.9674-0.3058 5.5548-1.033 9.7223-1.8724 10.73-3.1631 3.7976-4.2904 0.42488-1.4596-4.3672 1.5572-2.6362 1.5572-2.9925 0-5.3691-0.91738-1.4-1.6679-3.8609-1.6679-5.4685 0-1.7297-1.4959-5.0977-3.6643-8.2499-10.108-14.694-13.853-30.83-11.523-49.648 0.66385-5.3625 1.2027-12.134 1.1974-15.048-8e-3 -4.5009 0.40401-5.6815 2.7404-7.8491 2.6042-2.416 2.7528-3.0366 2.8033-11.702 0.0831-14.264 2.6423-20.572 7.8193-19.272 3.2971 0.82752 3.9866-0.29562 7.601-12.381 3.4461-11.523 3.4414-13.744-0.0562-26.477-2.3498-8.5542-2.4562-17.002-0.27909-22.148 2.2726-5.3715 5.3618-17.966 5.3618-21.859 0-1.9001-1.1224-4.838-2.7215-7.1234-3.4998-5.002-3.4857-10.01 0.061-21.534 3.8397-12.476 3.6653-13.889-2.3395-18.952-6.0232-5.0788-6.2532-6.9233-2.0361-16.322 1.6301-3.6333 3.6488-10.088 4.4859-14.343s2.6769-12.687 4.0884-18.737 2.9467-12.8 3.4116-15c0.79757-3.7746 2.2012-10.272 7.0057-32.429 2.844-13.116 2.7687-13.87-1.5642-15.68-3.4066-1.4234-21.984-3.2847-25.68-2.573-2.3212 0.44702-3.2539 4.793-1.8574 8.6548 1.4154 3.9143 1.4816 8.2028 0.13924 9.0324-0.55389 0.34231-1.277-0.0811-1.607-0.94099-0.33003-0.85986-1.6087-1.5634-2.8416-1.5634-1.9934 0-2.5905 1.211-5.393 10.937-1.7333 6.0154-3.1514 11.865-3.1514 13 0 2.859 2.3454 2.5803 4.6099-0.54781 1.0395-1.4359 2.4526-3.2038 3.1401-3.9286s1.2855-2.3624 1.329-3.6392c0.0434-1.2768 0.31021-1.746 0.59287-1.0428 0.28266 0.70325-0.0233 3.6282-0.6798 6.5-1.1975 5.2378-8.7295 26.73-11.993 34.221-2.0051 4.6027-4.1183 10.223-11.537 30.68-5.4597 15.056-9.4513 30.873-9.4771 37.553-0.0369 9.5528-9.8899 27.485-26.52 48.267-6.8033 8.5017-13.018 14.734-18.696 18.75-3.8684 2.7358-5.4845 3.25-10.214 3.25-3.0902 0-7.1128 0.6243-8.939 1.3873-3.9256 1.6402-4.6154 3.9922-4.6154 15.738 0 7.6252 0.0754 7.875 2.3776 7.875 1.3076 0 2.9378-0.675 3.6224-1.5s2.0632-1.5 3.0634-1.5 2.0966-0.45 2.4366-1c0.89604-1.4498 2.5-1.2265 2.5 0.34813 0 0.74146-1.9125 2.1796-4.25 3.1959-8.0249 3.489-9.4996 4.9996-10.257 10.507-0.54609 3.9705-1.4527 5.7848-4.247 8.4986-3.2462 3.1527-8.2459 4.7224-8.2459 2.5888 0-0.47386 1.8245-4.7549 4.0544-9.5135l4.0544-8.6519-4.0621-5.7909c-3.7082-5.2864-4.0086-6.1812-3.4481-10.27 0.58691-4.282 0.31642-4.9188-6.1361-14.446-12.431-18.354-18.348-32.741-21.579-52.466-2.3922-14.607-2.3597-28.854 0.11618-51 1.0761-9.625 1.9663-22.127 1.9782-27.781 0.0156-7.3661 0.37618-10.376 1.2718-10.614 6.3904-1.698 7.3046-2.3072 8.4436-5.6265 0.74086-2.1592 1.2171-10.306 1.2556-21.479 0.0575-16.694 0.7356-22.906 3.0563-28 0.50111-1.1 1.3972-3.9125 1.9914-6.25 0.9578-3.7682 1.4073-4.25 3.965-4.25 1.64 0 4.2043 1.1103 5.9429 2.5733 3.686 3.1016 6.8068 2.5384 7.7024-1.3899 1.944-8.5276 11.853-39.694 13.43-42.241 1.4561-2.3515 6.1976 1.1428 7.8754 5.804 1.2754 3.5433 1.2027 4.8064-0.75 13.023-2.7168 11.431-2.7369 19.16-0.072 27.788 2.4806 8.0314 2.2779 9.8781-2.5189 22.943-2.0194 5.5-4.5646 12.7-5.6561 16s-2.3607 6.9-2.8206 8c-0.87562 2.0944-3.4546 10.178-7.0188 22-3.6914 12.244-8.0538 36.193-9.27 50.892-1.0324 12.476-0.9676 15.386 0.5267 23.667 2.6502 14.687 2.7168 14.878 6.0795 17.442 3.8369 2.9266 8.4836 3.2655 18.088 1.3194 6.8779-1.3936 7.0462-1.5032 9.6477-6.2791 1.4563-2.6734 2.9287-6.7013 3.2721-8.9509 1.3078-8.5668 3.6268-13.059 8.8582-17.161 11.696-9.1694 16.108-15.608 21.314-31.102 5.9699-17.767 7.3939-25.616 5.343-29.448-0.88472-1.6531-0.60991-2.3472 1.6256-4.1057 2.9846-2.3476 6.3832-9.0132 6.4171-12.586 0.0121-1.2717 0.67686-4.4217 1.4773-7 0.80044-2.5784 3.2874-10.763 5.5265-18.188s4.5092-14.882 5.0447-16.571c1.5512-4.8934 1.2266-11.118-0.61674-11.825-0.87464-0.33562-1.9624-0.38022-2.4173-0.0991-3.3411 2.0649-27.91 4.469-28.056 2.7454-0.0351-0.4125-0.20676-2.1994-0.38145-3.971-0.43339-4.3952 0.94596-5.8847 7.9453-8.5796l6-2.3102 0.50855-5.6531c0.59876-6.6559 1.8439-8.4205 4.8184-6.8287 2.5916 1.387 11.173 1.4322 11.173 0.05892 0-0.56855-1.594-1.9742-3.5421-3.1236-3.7307-2.2011-4.0853-4.1044-0.87501-4.6959 2.9047-0.53521 5.4171-3.1881 5.4171-5.72 0-6.2458 2.3322-6.9064 6.8511-1.9405l3.1724 3.4863 7.7383-0.54886c17.606-1.2488 25.44-2.5496 33.469-5.558 13.381-5.0132 18.487-5.9362 41.539-7.5081 7.9522-0.54227 9.5406-0.38679 11.177 1.094 1.049 0.94936 3.6277 2.2322 5.7304 2.8508 5.3073 1.5613 34.696 1.4482 46.823-0.1802 5.5-0.73854 12.925-1.6927 16.5-2.1202 3.575-0.42759 10.55-1.2737 15.5-1.8803s12.8-1.5474 17.445-2.0907c7.2698-0.85038 8.7337-1.3496 10.517-3.5864l2.072-2.5985 2.6405 2.077c1.4523 1.1423 3.2963 2.077 4.0979 2.077 3.1812 0 6.8119-4.506 11.677-14.492 4.4481-9.1305 7.04-12.508 9.5982-12.508 0.79109 0 0.30591 2.8288-2.1439 12.5-0.97525 3.85-1.8026 9.315-1.8385 12.145-0.0408 3.2122-0.66977 5.8414-1.6746 7-0.88507 1.0205-2.5972 6.3555-3.8048 11.855-1.2076 5.5-2.8334 12.7-3.6129 16-2.7351 11.579-3.4857 23.09-2.2417 34.378 1.5232 13.822 1.53 20.819 0.0354 36.622-1.3579 14.358-0.84641 30.351 1.0287 32.167 0.66251 0.64158 6.3796 1.6733 12.705 2.2927 16.627 1.6284 16.716 1.6548 17.224 5.1161 0.55783 3.8008-0.82145 4.8747-5.9958 4.6683-3.2528-0.12972-5.1811 0.5428-8.7309 3.0449-2.5058 1.7663-4.8338 3.2114-5.1733 3.2114-1.4649 0-11.15 7.1024-11.723 8.5975-0.88775 2.3134 0.34127 36.757 1.5487 43.402 0.54964 3.025 1.8658 7.8794 2.9249 10.788 2.3225 6.3776 2.3672 8.0967 0.40593 15.626-1.9375 7.4387-0.97454 9.0144 4.9025 8.0215 2.2221-0.37542 4.7325-1.004 5.5786-1.3969 15.493-7.1936 21.159-12.356 27.194-24.775 3.5662-7.3387 4.0655-9.2878 4.5776-17.871l0.57479-9.6342-4.897-9.4798c-4.6932-9.0853-4.8907-9.7982-4.7456-17.129 0.15895-8.0279 0.90662-11.852 6.775-34.649 1.9821-7.7 4.0238-17.6 4.5372-22 0.51337-4.4 1.6095-12.95 2.4358-19 3.002-21.98 3.5528-26.156 4.617-35 1.459-12.125 2.569-15.361 5.5232-16.103 2.6476-0.6645 8.0584-6.2386 11.783-12.138 2.1274-3.3701 3.3246-4.0876 10.286-6.165 4.3329-1.293 10.128-3.0309 12.878-3.862s5.5817-2.046 6.2926-2.6998c0.71091-0.65386 1.6394-4.4343 2.0632-8.401 0.62981-5.8944 1.259-7.7006 3.4438-9.8854 3.601-3.6009 4.4929-2.4496 6.3244 8.1633 2.2381 12.969 0.6193 19.016-8.8587 33.091-3.081 4.5752-5.9644 13.07-7.6378 22.5-5.6218 31.683-7.3404 51.284-5.1626 58.878 0.87612 3.0548 0.69209 3.6038-2 5.9661-1.6307 1.4309-2.9649 3.3256-2.9649 4.2104 0 0.88478-1.9932 5.5475-4.4294 10.362-3.422 6.762-4.5651 10.269-5.0259 15.419-1.2263 13.705-2.7903 25.828-4.2109 32.64-2.9161 13.983-4.3206 23.205-4.956 32.542-0.7899 11.605-0.19651 12.511 7.2402 11.053 2.6851-0.52653 8.482-1.427 12.882-2.0011s12.851-1.7241 18.78-2.5555c16.683-2.3395 18.12-2.1942 20.645 2.087 2.0535 3.4805 2.2786 3.582 6.8488 3.088 13.568-1.4666 52.215-2.8114 62.975-2.1913 13.143 0.75741 15.254 1.8996 9.25 5.0046-7.4334 3.844-1.3074 5.8657 15.5 5.1154 7.15-0.3192 15.581-0.86837 18.734-1.2204 4.9549-0.55304 5.8284-0.39496 6.4262 1.1629 0.5156 1.3436-0.4182 2.7591-3.6647 5.5551-7.7745 6.6959-24.4 10.643-48.749 11.572l-15.253 0.58244 1.4275-4.0459c1.1602-3.2885 1.1901-4.3706 0.15928-5.7803-1.1252-1.5388-2.5548-1.663-12.675-1.1014-6.2735 0.34817-15.456 1.1133-20.406 1.7003s-12.375 1.4461-16.5 1.909c-20.463 2.2966-27.619 3.4378-28.881 4.6055-0.75934 0.70268-1.5301 2.9437-1.7129 4.9801-0.78264 8.722-4.6834 10.434-23.907 10.494-19.026 0.0592-28.958 2.2449-39.841 8.7679-1.6928 1.0146-3.7135 3.7341-5 6.7292-1.1875 2.7645-3.1369 6.5895-4.332 8.5s-3.6701 6.653-5.5 10.539c-3.9109 8.305-7.9495 13.435-10.577 13.435-1.1632 0-2.5153 1.3336-3.5484 3.5-0.91797 1.925-2.3513 3.5-3.1852 3.5-1.9415 0-1.9138-0.30027 0.45568-4.9448 2.1796-4.2722 4.2054-17.828 2.7947-18.699-0.48601-0.30037-0.60908-1.7962-0.2735-3.3241 0.44719-2.036 0.17451-2.9452-1.0209-3.4039-2.1774-0.83555-6.5439 0.26824-8.7884 2.2216-1.6689 1.4524-1.6835 1.6777-0.18098 2.7764 1.4933 1.092 1.4741 1.2469-0.22129 1.785-3.2775 1.0402-11.024 9.9006-14.236 16.284-1.8309 3.6381-4.7342 7.475-7.0351 9.2974-5.203 4.1209-9.1948 11.448-12.534 23.008-3.3422 11.57-4.6208 28.805-2.2809 30.747 1.9552 1.6227 7.2814 0.0815 12.918-3.7381 2.5158-1.7048 5.7206-2.9803 7.5142-2.9907 4.5478-0.0265 5.5118-1.8309 5.1702-9.6782l-0.29774-6.84-5.4697-0.30988c-5.9393-0.33648-8.0303-1.4392-8.0303-4.235 0-1.9865 2.6025-3.0531 14.577-5.974 4.0686-0.99242 9.0906-2.7177 11.16-3.8339 10.37-5.5932 11.658-5.9712 21.513-6.311 8.7481-0.30167 9.7507-0.1563 9.75 1.4138-5.2e-4 1.1885-0.78397 1.75-2.4418 1.75-1.3425 0-2.7376 0.47994-3.1001 1.0665-0.81993 1.3267-0.36971 1.8 2.1018 2.2098 1.0666 0.17682 2.9222 0.862 4.1235 1.5226s3.1434 1.2011 4.3157 1.2011 2.9212 0.42264 3.8864 0.9392c1.9694 1.054 10.114-0.60557 10.114-2.0608 0-0.4831 0.44896-0.87836 0.99769-0.87836 1.4527 0 11.002-7.0251 11.002-8.0938 0-0.4984 0.78894-0.90619 1.7532-0.90619s3.9685-1.575 6.676-3.5 5.4489-3.5 6.0918-3.5c2.0421 0 4.9556-3.9234 3.7837-5.0953-2.1222-2.1222-34.778 0.7107-42.66 3.7008-3.7869 1.4366-7.6448 1.1199-7.6448-0.62745 0-0.48794 1.119-2.0062 2.4867-3.3739 1.9168-1.9168 2.354-3.1503 1.9077-5.3818-0.35505-1.7753-0.0598-3.4517 0.76326-4.3344 0.73824-0.79165 2.4173-3.5653 3.7312-6.1637s2.7067-4.7243 3.095-4.7243c0.38833 0 1.5205 0.9 2.516 2 2.2786 2.5179 3.8814 2.4873 9.5-0.18103 4.1321-1.9624 5.9306-2.1188 22-1.9132 9.625 0.12318 21.325-0.2305 26-0.78594s11.408-1.1471 14.962-1.3149l6.4616-0.30499 0.90864 3.1648c0.95189 3.3155 2.8193 4.2974 8.2188 4.3215 2.51 0.0112 3.5292-0.74361 5.7519-4.26 2.5232-3.9918 6.4933-6.8508 11.197-8.0636 1.1-0.28359 6.95-1.8961 13-3.5833 9.782-2.728 12.495-3.0679 24.5-3.0698 14.957-2e-3 16.076 0.35236 23.197 7.3508 7.3553 7.2284 17.822 23.614 17.779 27.832-0.013 1.2692-1.4755 5.2326-3.25 8.8076-2.5014 5.0393-4.1305 6.9944-7.2497 8.6999-2.2129 1.2099-8.2526 6.0474-13.422 10.75-6.0026 5.4609-10.218 8.5501-11.668 8.5501-5.1345 0-3.5812 4.1766 2.9727 7.9929 2.2769 1.3259 5.1524 2.2877 6.3899 2.1373 2.0758-0.25223 2.25 0.12275 2.25 4.8436 0 5.76-0.60651 4.9845 13.315 17.026 7.9693 6.8932 10.339 10 7.6275 10-2.9912 0-18.073-9.8392-26.739-17.445-3.4634-3.0393-8.355-6.7321-10.87-8.2062-3.8386-2.2496-4.8859-2.4848-6.5196-1.4645-1.6528 1.0322-2.6498 0.74971-6.6095-1.8731-6.1964-4.1043-8.8083-4.6793-11.244-2.475-1.0778 0.97543-1.9597 2.3967-1.9597 3.1584 0 0.76166-0.93908 3.2256-2.0868 5.4754-1.472 2.8852-1.9048 5.0607-1.4692 7.383 0.51267 2.7328 0.27226 3.4021-1.4142 3.9374-3.4402 1.0919-4.484 4.4518-4.5075 14.509-0.0122 5.225-0.44637 10.16-0.96476 10.966-0.5184 0.80632-1.2002 3.0515-1.5152 4.9892-0.38401 2.3625-1.1859 3.6413-2.4341 3.8817-1.7342 0.33399-1.8135-0.17769-1.1604-7.4892 0.38557-4.3162 1.3683-12.744 2.1838-18.728 0.81552-5.9839 1.2462-11.496 0.957-12.25-0.28917-0.75356-1.6649-1.3701-3.0572-1.3701s-2.5314-0.40787-2.5314-0.90638 0.80519-0.69582 1.7893-0.43846c0.98982 0.25884 2.57-0.39469 3.5364-1.4626 1.4712-1.6256 1.7019-3.57 1.4607-12.312l-0.28643-10.381-5.5516-0.0683c-6.9095-0.0851-7.9484-0.71715-7.9484-4.8357 0-5.2189 2.6934-6.9348 9.6944-6.1761 3.1931 0.34602 6.2833 0.28061 6.8671-0.14536 1.0755-0.78472 3.7802-10.456 4.9708-17.774 0.83939-5.1597 6.1968-13.5 8.6717-13.5 1.2604 0 2.4939-1.4622 3.796-4.5 1.3677-3.1907 2.5109-4.5 3.9293-4.5 3.2967 0 4.385 3.3657 3.0115 9.3136-2.9682 12.854-3.9136 23.303-2.3389 25.851 1.6992 2.7493 12.746-0.57187 16.795-5.0495 1.0433-1.1536 3.8264-3.2282 6.1846-4.6103 4.7958-2.8105 8.4184-7.2693 8.4184-10.362 0-1.1262-2.1375-5.0266-4.75-8.6674s-6.2317-8.7249-8.0427-11.298c-4.6128-6.5538-6.8377-8.1782-11.201-8.1782-3.0627 0-3.8825 0.42015-4.3565 2.2328-0.65397 2.5008-2.0056 1.6984-4.0402-2.3986-1.6187-3.2593-4.7688-3.3898-9.5145-0.39393-2.2302 1.4079-4.3855 2.5598-4.7896 2.5598s-4.5755 1.869-9.2699 4.1534c-8.5468 4.1591-15.557 10.043-14.682 12.323 0.25631 0.66793-1.9475 3.8714-4.8974 7.1188-4.9591 5.4592-5.3669 5.7084-5.4094 3.3048-0.0253-1.4297 1.2959-4.5797 2.9359-7s2.99-4.6898 3-5.0435c0.0423-1.4955-3.3607-1.7579-5.822-0.449-1.4629 0.77795-4.2348 1.9683-6.1598 2.6452-1.925 0.67691-5.1971 2.3597-7.2713 3.7396-3.2258 2.1459-4.1367 2.3423-6.2971 1.358-4.2402-1.932-6.9566-1.3413-16.553 3.5992-6.0799 3.1301-9.7638 5.6964-10.802 7.5253-0.86689 1.5264-4.3887 4.6168-7.8262 6.8675s-6.25 4.4412-6.25 4.8677c0 1.7218 4.3757 1.9895 32.523 1.9895 16.701 0 29.603 0.39496 29.925 0.91608 0.31139 0.50385 0.025 2.1914-0.63638 3.75-0.6614 1.5587-1.2276 3.5089-1.2581 4.3339-0.0612 1.6509-3.9009 2.5156-17.054 3.8404-5.5829 0.56231-9.9639 1.7314-14.5 3.8693-12.798 6.0317-16.313 7.2903-20.359 7.2903h-4.105l3.7203-2.528c2.0461-1.3904 5.7977-2.9161 8.3369-3.3905s5.3085-1.5544 6.1542-2.4c1.3834-1.3834 1.1946-1.6019-1.8826-2.1791-5.9568-1.1175-23.68 1.9419-30.885 5.3314-3.5639 1.6766-8.4908 3.1874-10.949 3.3573-4.0054 0.27688-4.7643 0.74977-7.3161 4.5589-4.1541 6.201-5.7158 5.6541-5.7112-2 3e-3 -4.4933 0.56816-7.1758 2.0118-9.5436 1.5503-2.5428 1.7694-3.7396 0.96108-5.25-2.2276-4.1623-6.7908-0.33628-5.5405 4.6454 0.61761 2.4608-1.4547 7.6736-3.5704 8.9812-0.83013 0.51305-1.0114-0.71636-0.65396-4.436 0.64439-6.7063-0.83478-8.157-5.4336-5.3291-1.9465 1.1969-4.2938 1.8228-5.7782 1.5406-1.375-0.26136-3.3604 0.16086-4.4121 0.93828-1.6682 1.2332-1.9341 2.867-2.0852 12.808-0.12851 8.4588-0.87278 14.332-2.8885 22.792-1.4934 6.2684-2.483 12.003-2.199 12.743 0.28401 0.74013-0.33193 2.1364-1.3688 3.1028-3.0276 2.822-5.0163 10.109-5.032 18.439-0.014 7.387-0.12972 7.7639-3.0146 9.8181l-3 2.1362zm-181.03-35.018c0.66-0.66 1.2-1.9169 1.2-2.7932 0-0.93453 1.3436-1.9888 3.25-2.55 2.8643-0.84324 3.4874-1.6968 5.25-7.1916 1.5539-4.8441 3.0411-7.1862 6.6674-10.5 3.6106-3.2994 5.3801-6.0766 7.8149-12.265 1.7311-4.4 3.414-10.25 3.7398-13s1.3091-6.1021 2.1851-7.4492c0.87603-1.3471 2.0976-4.7221 2.7146-7.5s2.1016-8.6508 3.2991-13.051c2.0368-7.4838 2.6824-17.459 1.8447-28.5-0.32652-4.3036 2.5516-5.082 3.0438-0.82318 0.44985 3.8924 2.8709 5.6427 4.5773 3.3091 1.8651-2.5506 4.6096-1.2267 4.6287 2.2327 0.0306 5.5646 0.64525 5.6593 14.078 2.1697 6.8236-1.7726 13.299-3.8259 14.389-4.5629 2.7394-1.8512 5.247-18.024 3.1238-20.147-1.1675-1.1675-1.7463-1.1327-3.8257 0.22976-1.3476 0.88295-3.0808 2.8399-3.8516 4.3488-1.6076 3.1469-5.5697 7.2434-7.0057 7.2434-2.1918 0-2.9169-4.9951-1.3466-9.2774 2.7097-7.3897 6.5196-18.968 8.9578-27.223 3.2148-10.884 6.3764-20.39 7.9819-24 3.1959-7.1853 6.4826-18.693 6.4766-22.676-4e-3 -2.6314-0.78423-5.4979-1.9934-7.3237-2.6845-4.0534-2.5157-5.1469 0.90012-5.83 2.312-0.46241 3.2492-1.494 4.6214-5.0873 0.94674-2.479 1.4762-5.1461 1.1766-5.9268-1.5182-3.9562-28.133-5.4667-39.014-2.2141-6.6483 1.9873-7.8386 3.7004-4.8105 6.9236 2.9103 3.0979 2.8312 4.9129-0.15474 3.5524-1.2547-0.57167-3.5479-3.2927-5.096-6.0468s-3.4118-5.2365-4.1414-5.5165c-3.4545-1.3256-2.1835-6.3544 1.606-6.3544 2.0205 0 4.3641-3.4607 3.4-5.0207-0.3329-0.53863-0.29387-1.4832 0.0867-2.099 0.43978-0.71157 1.9006 0.19961 4.008 2.5 3.7375 4.0797 6.9173 4.533 17.984 2.5639 8.697-1.5474 8.6964-1.5471 16.11-7.6398 7.0685-5.8088 15.281-10.278 18.918-10.295 1.1523-5e-3 2.9095-0.90977 3.905-2.0098s2.6402-2 3.655-2c1.9811 0 2.4838-1.4872 0.84501-2.5-1.4512-0.89691-1.2152-4.5637 0.50616-7.8643 0.82161-1.5754 1.4938-3.4879 1.4938-4.25 0-0.87551 1.1136-1.3857 3.0248-1.3857 2.3617 0 3.2485-0.58846 4.0454-2.6845 1.6389-4.3107 0.82184-6.7706-2.3707-7.1368-2.7346-0.31374-2.7848-0.43155-2.13-5 0.39419-2.7503 1.7546-6.0403 3.3006-7.9822 5.6618-7.1117 7.1753-9.6645 8.816-14.869 0.98237-3.1164 3.477-7.4806 5.8958-10.314 5.6308-6.5967 7.9989-10.636 9.3871-16.013 3.7565-14.549 3.6621-14.375 12.293-22.609 4.5312-4.3231 9.3368-8.0921 10.679-8.3755 2.6696-0.56354 7.7801-9.0399 6.6008-10.948-1.6817-2.721-10.154-0.80266-19.596 4.4369-3.397 1.8851-16.484 4.0999-32.446 5.4909-19.153 1.6691-19.129 1.6633-21.636 5.2926-3.3457 4.8436-4.8772 6.1013-10.87 8.9267-7.4917 3.5319-11.663 4.5162-24.493 5.7803-11.806 1.1632-13.525 2.0494-13.473 6.9465 0.0286 2.7012-6.6837 33.143-8.0612 36.559-0.44356 1.1-1.0675 3.575-1.3865 5.5-4.8205 29.09-5.2947 31.085-9.3263 39.254-4.1674 8.4435-7.7031 18.141-9.2052 25.246-2.9622 14.012-4.3283 22.655-6.9764 44.137-1.6365 13.275-3.6555 27.069-4.4867 30.653-1.0784 4.65-1.5493 12.858-1.644 28.655l-0.13276 22.139-3.4851 5.1788c-2.7404 4.0722-3.3617 5.8261-2.9077 8.2079 2.1078 11.058 2.2696 9.8742-3.0248 22.125-0.73582 1.7026-2.7351 8.2276-4.4428 14.5s-3.6321 13.204-4.2763 15.404-1.1714 9.6487-1.1714 16.553c0 10.458 0.29735 12.961 1.7817 15 0.97996 1.346 2.7119 3.9098 3.8488 5.6973 2.2683 3.5664 2.8831 3.8364 4.6695 2.05zm54.557-240.31c-0.98455-2.5657 1.6018-4.4883 6.0157-4.472 6.6649 0.0247 7.4458 1.3798 2.2128 3.8396-5.3913 2.5342-7.4383 2.6915-8.2285 0.63233zm179.64 161.45c0-0.51754-0.675-0.94098-1.5-0.94098-1.5464 0-1.9867 1.18-0.86052 2.3062 0.79893 0.79893 2.3605-0.10419 2.3605-1.3652zm-330.74-53.191c4.1756-2.3377 7.9995-5.8352 10.623-9.7162 1.4395-2.1296 4.0731-5.464 5.8524-7.4099 3.2002-3.4997 3.4659-5.9491 0.7583-6.9881-0.79898-0.3066-3.5758 2.0136-6.789 5.6727-2.9904 3.4053-7.1847 8.0077-9.3207 10.227-5.3674 5.5778-7.3214 8.193-6.6349 8.8795 0.94028 0.94028 3.1111 0.67815 5.511-0.66548zm-14.46-24.95c1.7144-1.7144 1.4824-5.4776-0.38179-6.193-3.1055-1.1917-7.316-0.61203-8.3022 1.143-2.1 3.7371 5.5489 8.1851 8.684 5.05zm233.19-34.283c1.023-1.2327 0.75903-1.6629-1.562-2.5454-5.286-2.0097-10.431 0.89327-5.258 2.9667 3.4259 1.3731 5.4337 1.2491 6.82-0.42129zm33.536-62.32c-0.28714-0.74827-0.52207-1.7737-0.52207-2.2787 0-1.6941-4.6707-0.93959-6.4663 1.0445-2.306 2.5481-1.3797 4.8012 2.1572 5.2472 3.0681 0.38681 5.6853-1.7872 4.8311-4.013zm9.2779 1.6031c2.4618-2.4618 0.47344-16.338-2.7604-19.264-1.7247-1.5608-1.9354-1.5227-3.4384 0.62325-3.0442 4.3462-1.285 16.381 2.7884 19.076 1.5303 1.0125 2.0266 0.94921 3.4105-0.43469zm-277.7 294.83c-1.2275-1.479-0.67701-2.0563 7.0594-7.4027 2.5649-1.7725 5.2649-3.2159 6-3.2075 0.81641 9e-3 0.94515 0.30122 0.33083 0.75-0.55313 0.40408-2.2639 2.4227-3.8017 4.4857-3.5619 4.7785-8.0126 7.2732-9.5885 5.3744zm323.4-11.625c-0.39915-0.64585-0.27574-1.6243 0.27426-2.1743 0.66667-0.66667 1.2419-0.60858 1.7257 0.17426 0.39915 0.64585 0.27574 1.6243-0.27426 2.1743-0.66667 0.66667-1.2419 0.60858-1.7257-0.17426zm-707.31-4.2414c0.22431-3.0939 0.78094-4.3312 2.0575-4.5733 1.3506-0.2562 1.75 0.35071 1.75 2.6596 0 4.036-0.91734 6.1551-2.6645 6.1551-1.0877 0-1.3736-1.0609-1.143-4.2414zm714.47 2.7999c-1.0001-2.6063-0.79427-8.0309 0.48652-12.82 1.0081-3.7692 0.82754-5.3683-1.4879-13.176-1.8538-6.2514-2.33-9.2545-1.6057-10.127 0.94202-1.1351 10.099-2.6874 22.272-3.7754 3.4567-0.30896 5.2459-1.0312 6.3067-2.5456 1.9137-2.7322 3.6432-2.6841 4.8804 0.13571 0.97123 2.2138 1.3047 2.2532 20.704 2.4472 11.931 0.11934 20.522 0.62772 21.754 1.2874 1.4643 0.78369 3.1647 0.78657 6.0477 0.0103 2.2058-0.59398 5.5243-0.79599 7.3743-0.44892 2.2082 0.41426 4.419 0.0853 6.4355-0.95747 1.6895-0.87367 5.2317-1.5702 7.8715-1.5479 3.8372 0.0325 5.494 0.6341 8.2619 3 2.1795 1.8629 2.8854 2.9594 1.9052 2.9594-0.85635 0-4.2144 0.92559-7.4622 2.0569-4.1914 1.4599-10.404 2.3397-21.405 3.0315-21.403 1.3458-27.964 2.2353-29.014 3.9337-0.5646 0.91355-2.1531 1.3273-4.3642 1.1368-4.2526-0.36638-5.5617 1.5718-5.7584 8.5254-0.0749 2.6487-0.31338 3.6907-0.52996 2.3157-0.98057-6.2255-1.2846-6.6687-5.4264-7.9096-3.761-1.1268-16.131-0.83171-20.982 0.50054-1.9473 0.53484-11.401 13.991-12.231 17.409-0.3339 1.375-1.2292 3.3506-1.9897 4.3903-1.2819 1.7526-1.4307 1.7649-2.0434 0.16821zm-312.52-3.3085c1.3818-1.5125 3.9326-5.0264 5.6685-7.8086 2.7472-4.4033 8.7063-10.62 26.897-28.06 2.3901-2.2914 4.2958-5.0501 4.2958-6.2186 0-1.4507 0.46126-1.9232 1.4916-1.5278 1.6689 0.6404 3.0712-1.9155 2.001-3.6471-0.457-0.73945-1.1516-0.50602-2.0893 0.70211-1.5523 2-1.689 1.8973-7.0578-5.3014-2.019-2.7071-2.2632-2.7839-3.8825-1.2206-1.4074 1.3587-2.189 1.4582-4.213 0.53594-2.1837-0.99495-2.7681-0.80315-4.8196 1.5818-1.533 1.7822-3.3223 2.714-5.2116 2.714-2.4652 0-3.1833 0.67984-5.0168 4.75-1.1769 2.6125-2.6212 6.6625-3.2095 9-0.89055 3.5383-1.476 4.25-3.4959 4.25-2.7559 0-3.9201 1.7624-4.9545 7.5-0.73117 4.0558-2.0967 6.5-3.6315 6.5-1.2656 0-0.26572-20.969 1.192-24.998 1.4481-4.0017 1.7261-16.715 0.4857-22.213-0.79667-3.5311-0.66718-3.8106 2.6809-5.786 4.5741-2.6988 6.1952-6.8502 6.1178-15.667-0.0564-6.4266 0.16182-7.2657 2.122-8.1588 1.8156-0.82723 2.2888-2.1086 2.7998-7.5812 0.7342-7.8624 1.7836-10.072 6.0051-12.646 9.0077-5.4924 12.321 0.104 9.7993 16.55-1.5741 10.264-1.5181 10.755 1.1369 9.9653 4.0996-1.2198 8.6145-4.8795 10.786-8.743 1.1784-2.0966 3.8904-4.9687 6.0268-6.3825 4.8942-3.2388 4.2577-4.7493-3.7193-8.8265-3.2138-1.6427-9.5682-5.7627-14.121-9.1558-8.7414-6.5148-14.662-8.5805-29.722-10.371l-6-0.71321 8-0.18919c16.726-0.39555 33.961 0.0536 34.996 0.91186 0.59171 0.49108 3.9848 2.328 7.5401 4.0821 8.8171 4.35 24.964 13.88 24.964 14.733 0 1.4437-3.8229 13.989-4.8446 15.898-0.58685 1.0965-4.1244 4.4648-7.8612 7.485-12.557 10.149-15.181 13.024-14.211 15.57 0.47465 1.2455 1.8876 2.6607 3.1398 3.1448 2.3232 0.89819 10.589 7.8361 17.136 14.383 2.6282 2.6282 3.6408 4.5065 3.6408 6.7536 0 3.3388-4.4263 15.479-6.5461 17.954-0.70656 0.825-1.611 3.2576-2.0098 5.4057l-0.72511 3.9057-1.3914-2.6557c-1.567-2.9908-2.9454-3.2593-5.7687-1.1239-1.0676 0.80751-2.9504 1.4682-4.184 1.4682-1.2494 0-10.53 5.7582-20.951 13-18.344 12.747-24.609 16.076-19.286 10.25zm22.862-4.1276c0-1.1673 0.42344-2.1224 0.94098-2.1224 1.7325 0 2.053 1.7601 0.54801 3.0091-1.2391 1.0284-1.489 0.87956-1.489-0.8867zm-308.76-11.094c-0.24677-5.7494-0.14324-6.0291 2.7934-7.5477 1.6773-0.86737 3.5524-2.6804 4.1668-4.0289 0.61444-1.3485 1.5578-2.4519 2.0964-2.4519 0.53859 0 1.577-0.7875 2.3077-1.75 1.9007-2.5038 1.6938-0.5474-0.60795 5.75-1.1 3.0095-2 6.1932-2 7.0748 0 2.2525-5.1918 8.8449-7 8.8883-1.1421 0.0274-1.5611-1.3884-1.7563-5.9346zm-154.24-6.9695c0-2.6274 1.3342-3.2664 3.5055-1.6787 2.1123 1.5445 1.2153 3.6197-1.5645 3.6197-1.2546 0-1.941-0.68634-1.941-1.941zm168-32.059c0-1.8667 0.26667-2.1333 1.2-1.2s0.93333 1.4667 0 2.4-1.2 0.66667-1.2-1.2zm-78.93-54.75c-0.0387-1.7875 0.37971-3.25 0.92971-3.25 1.1872 0 1.1872 1.7373 0 4.5-0.72021 1.676-0.87082 1.4735-0.92971-1.25zm508.68-0.91228c0.6875-0.27741 1.8125-0.27741 2.5 0s0.125 0.50439-1.25 0.50439-1.9375-0.22698-1.25-0.50439zm284.11-0.23046c1.241-0.7863 5.1393-0.39992 5.1393 0.50937 0 0.21085-1.4625 0.37648-3.25 0.36806-2.2096-0.0104-2.8144-0.29129-1.8893-0.87743zm-790.86-3.4223c0-0.38071 0.9-2.3714 2-4.4238 1.6552-3.0883 2-3.339 2-1.4546 0 1.2524-0.9 3.243-2 4.4238-1.1 1.1807-2 1.8353-2 1.4546zm336-7.6849c-1.2819-0.82843-1.2456-0.9716 0.25-0.98469 0.9625-8e-3 1.75 0.43469 1.75 0.98469 0 1.2196-0.11279 1.2196-2 0zm-331-17.535c0-2.839 3.1492-6.4648 5.615-6.4648 1.977 0 2.385 0.50714 2.385 2.9648 0 1.9078-0.68962 3.3339-1.9343 4-2.8693 1.5356-6.0657 1.2721-6.0657-0.5zm340.5-0.47188c-0.75471-1.2212 1.9888-2.4296 3.4565-1.5225 0.57634 0.3562 1.0479 1.0711 1.0479 1.5886 0 1.2611-3.7178 1.2066-4.5044-0.0661zm-70.16-4.5602c-0.94764-2.4695 1.0857-3.811 3.4954-2.3061 1.5395 0.96143 1.7936 1.6204 0.99545 2.5821-1.4648 1.765-3.7618 1.6238-4.4909-0.27602zm491.66-12.106c0-2.3665 2.7844-3.3228 9.45-3.2457l7.05 0.0816-3.5 1.5586c-4.1328 1.8405-13 2.9355-13 1.6054zm-345.54-3.3744c-1.3254-1.4646-1.5131-2.297-0.70087-3.1092 1.5741-1.5741 4.2436-0.27442 4.2436 2.066 0 2.8886-1.4786 3.324-3.5427 1.0432zm454.58-32.409c-1.4818-1.7854-0.5111-3.6632 1.4956-2.8931 1.5621 0.59944 2.0712 4.3493 0.5904 4.3493-0.4826 0-1.4214-0.65529-2.086-1.4562zm-866.04-12.044c0-1.4907 0.4306-2.3519 1-2 0.55 0.33992 1 1.2399 1 2s-0.45 1.6601-1 2c-0.5694 0.35191-1-0.50929-1-2zm653.73 0.23571c-0.83311-2.171 0.32915-6.4782 2.2066-8.1773 1.5819-1.4316 1.8388-1.349 3.0932 0.99501 1.1838 2.212 1.1486 2.9192-0.26185 5.2514-1.8407 3.0437-4.2557 3.9693-5.0379 1.9309zm-605.23-82.745c-1.0178-1.6469 0.46115-4.8422 2.5477-5.5044 2.5015-0.79393 3.9578 0.13969 3.9578 2.5372 0 2.885-5.1146 5.2178-6.5055 2.9672zm27.144-45.491c-0.38957-1.0152 0.0505-1.5 1.3616-1.5s1.7512 0.48478 1.3616 1.5c-0.31659 0.825-0.92932 1.5-1.3616 1.5s-1.045-0.675-1.3616-1.5zm57.671-23.136c-0.66244-1.7263 0.62937-4.5104 2.3606-5.0874 0.56495-0.18832 2.0932 0.52082 3.3961 1.5759 2.0321 1.6455 2.1784 2.1478 1.0289 3.5329-1.738 2.0941-5.979 2.0808-6.7856-0.0213zm-161.75-6.1395c-1.1914-1.1914-0.47732-5.3183 1.0196-5.8927 1.9733-0.75722 4.8852 2.0198 4.1438 3.9518-0.58351 1.5206-4.2177 2.8866-5.1635 1.9409zm-32.872-3.8721c-0.35614-0.35615-4.1436-1.6627-8.4167-2.9034-6.8309-1.9835-7.4362-2.3412-5.0126-2.9625 1.5161-0.38864 4.2161-0.43025 6-0.0925 3.3961 0.64308 9.6664 4.9992 8.6601 6.0163-0.32084 0.3243-0.87473 0.29825-1.2309-0.0579zm397.68-21.852c-0.80229-2.0907 0.2897-4.5 2.0396-4.5 1.6308 0 3.0738 3.4224 2.1043 4.9911-0.93679 1.5158-3.4899 1.2132-4.1439-0.49105zm-389.61-16.158c-4.6859-1.9436-4.7664-3.8892-0.25-6.0429 3.2686-1.5587 3.7314-1.5587 7 0 4.0311 1.9223 4.4474 3.9244 1.2775 6.1447-2.6911 1.8849-3.255 1.8777-8.0275-0.10178zm674.75-24.342c-0.33992-0.55-0.14148-1 0.44098-1s1.059 0.45 1.059 1-0.19844 1-0.44098 1-0.7191-0.45-1.059-1zm-22.024-7.0388c-1.0105-1.6349 2.0351-4.3628 4.0203-3.601 0.90829 0.34855 1.5011 1.4226 1.3173 2.3867-0.38695 2.0302-4.2853 2.917-5.3376 1.2142z"/>
</svg>
